<?xml version="1.0" encoding="UTF-8" standalone="no"?>
<!DOCTYPE svg PUBLIC "-//W3C//DTD SVG 1.1//EN" "http://www.w3.org/Graphics/SVG/1.1/DTD/svg11.dtd">
<svg width="100%" height="100%" viewBox="0 0 235 22" version="1.1" xmlns="http://www.w3.org/2000/svg" xmlns:xlink="http://www.w3.org/1999/xlink" xml:space="preserve" xmlns:serif="http://www.serif.com/" style="fill-rule:evenodd;clip-rule:evenodd;stroke-linejoin:round;stroke-miterlimit:2;">
    <path d="M108.486,12.508C109.495,15.63 110.495,18.713 111.524,21.904L106.846,21.904C105.896,19.085 104.927,16.217 103.952,13.343L96.48,13.343L96.48,21.919L92.135,21.919C92.1,21.884 92.07,21.855 92.045,21.83C92.02,21.8 91.976,21.77 91.971,21.735C91.941,21.377 91.896,21.019 91.896,20.661C91.896,13.96 91.911,7.258 91.921,0.556C91.921,0.447 91.995,0.337 92.07,0.144C92.353,0.109 92.662,0.039 92.97,0.039C97.037,0.034 101.108,-0.001 105.175,0.044C108.039,0.079 110.127,1.506 111.231,4.081C112.289,6.552 111.951,8.963 110.122,11.041C109.674,11.548 109.113,11.951 108.486,12.508ZM96.534,4.563L96.534,8.725C96.773,8.764 96.967,8.824 97.156,8.824C99.687,8.829 102.217,8.849 104.748,8.819C106.294,8.799 107.278,7.914 107.268,6.656C107.258,5.389 106.294,4.583 104.703,4.568C102.853,4.548 101.009,4.563 99.159,4.563L96.53,4.563L96.534,4.563Z" style="fill-rule:nonzero;"/>
    <path d="M202.415,21.979C201.008,21.979 199.725,21.969 198.442,21.979C197.895,21.984 197.702,21.561 197.438,21.218C195.206,18.265 192.978,15.312 190.751,12.359C189.643,10.887 188.529,9.416 187.197,7.989L187.197,21.899L182.692,21.899L182.692,0.049C184.104,0.049 185.461,0.004 186.814,0.084C187.122,0.104 187.455,0.521 187.684,0.825C190.821,4.956 193.938,9.102 197.065,13.244C197.279,13.522 197.503,13.796 197.94,14.014C197.94,11.703 197.92,9.396 197.945,7.089C197.97,4.777 197.826,2.455 198.04,0.114L202.415,0.114L202.415,21.979Z" style="fill-rule:nonzero;"/>
    <path d="M0.255,0.104L17.7,0.104L17.7,4.469C17.262,4.499 16.84,4.558 16.417,4.558C12.952,4.563 9.482,4.558 6.017,4.558L4.659,4.558L4.659,8.779L13.22,8.779L13.22,13.234C11.823,13.328 10.387,13.269 8.955,13.278C7.553,13.288 6.151,13.278 4.674,13.278L4.674,17.534L17.715,17.534L17.715,21.889L0.21,21.889C-0.094,20.721 -0.059,1.048 0.255,0.104Z" style="fill-rule:nonzero;"/>
    <path d="M216.574,0.109L234.074,0.109L234.074,4.469C233.035,4.658 231.951,4.538 230.887,4.558C229.798,4.578 228.709,4.558 227.621,4.558L221.138,4.558L221.138,8.804L229.694,8.804C229.818,10.34 229.768,11.752 229.724,13.264L221.138,13.264C220.959,14.685 221.053,16.028 221.068,17.524L234.084,17.524L234.084,21.899L216.678,21.899C216.415,21.044 216.31,2.197 216.574,0.104L216.574,0.109Z" style="fill-rule:nonzero;"/>
    <path d="M61.375,21.76L61.375,0.064C67.217,-0.011 72.999,0.044 78.93,0.029C79.074,1.541 79.044,2.952 78.955,4.484C77.434,4.638 75.997,4.543 74.56,4.558C73.148,4.573 71.736,4.558 70.329,4.558L65.91,4.558L65.91,8.764C68.718,8.918 71.557,8.734 74.466,8.874L74.466,13.229L65.865,13.229C65.785,14.685 65.84,16.023 65.83,17.494L78.95,17.494C79.059,19.031 79.04,20.438 78.975,21.83C77.364,22.103 62.221,22.023 61.375,21.75L61.375,21.76Z" style="fill-rule:nonzero;"/>
    <path d="M171.814,21.979C170.268,21.979 168.866,21.974 167.464,21.979C166.997,21.979 166.863,21.646 166.724,21.313C166.231,20.129 165.744,18.941 165.237,17.708L156.293,17.708C155.92,18.628 155.518,19.582 155.145,20.547C154.483,22.262 154.672,21.959 152.987,21.979C152.023,21.989 151.053,21.964 150.089,21.949C150.019,21.949 149.949,21.879 149.81,21.81C149.9,21.526 149.979,21.223 150.094,20.94C152.773,14.313 155.463,7.69 158.118,1.053C158.416,0.313 158.769,-0.065 159.614,0.009C160.415,0.079 161.23,0.064 162.03,0.009C162.751,-0.04 163.109,0.238 163.373,0.909C164.466,3.718 165.605,6.507 166.734,9.296C168.255,13.055 169.781,16.813 171.302,20.577C171.466,20.98 171.601,21.392 171.814,21.974L171.814,21.979ZM163.353,13.109C162.602,10.897 161.682,8.894 160.773,6.617C159.838,8.928 159.013,10.982 158.153,13.109L163.353,13.109Z" style="fill-rule:nonzero;"/>
    <path d="M36.691,21.984L27.827,0.089C28.776,0.064 29.517,0.024 30.258,0.034C33.246,0.089 32.45,-0.443 33.574,2.266C35.225,6.234 36.811,10.226 38.426,14.208C38.571,14.566 38.745,14.914 38.973,15.411C40.206,12.344 41.365,9.445 42.533,6.542C43.284,4.678 44.064,2.828 44.78,0.954C45.029,0.303 45.342,-0.026 46.093,0.014C47.291,0.074 48.494,0.029 49.652,0.029C49.97,0.626 49.632,1.004 49.483,1.386C47.161,7.158 44.82,12.93 42.488,18.698C42.14,19.553 41.767,20.403 41.459,21.273C41.265,21.815 40.957,22.019 40.38,21.999C39.177,21.964 37.969,21.989 36.691,21.989L36.691,21.984Z" style="fill-rule:nonzero;"/>
    <path d="M124.803,21.904L124.803,0.114L129.213,0.114C129.253,3.037 129.228,5.911 129.233,8.779L129.233,17.544L140.165,17.544L140.165,21.899L124.808,21.899L124.803,21.904Z" style="fill-rule:nonzero;"/>
</svg>
