<?xml version="1.0" encoding="UTF-8" standalone="no"?>
<!DOCTYPE svg PUBLIC "-//W3C//DTD SVG 1.1//EN" "http://www.w3.org/Graphics/SVG/1.1/DTD/svg11.dtd">
<svg width="100%" height="100%" viewBox="0 0 294 130" version="1.1" xmlns="http://www.w3.org/2000/svg" xmlns:xlink="http://www.w3.org/1999/xlink" xml:space="preserve" xmlns:serif="http://www.serif.com/" style="fill-rule:evenodd;clip-rule:evenodd;stroke-linejoin:round;stroke-miterlimit:2;">
    <g transform="matrix(1,0,0,1,-3.293,-85.047)">
        <clipPath id="_clip1">
            <path d="M285.82,192.021L285.82,192.701L283.908,192.701L283.908,197.725L283.128,197.725L283.128,192.701L281.217,192.701L281.217,192.021L285.82,192.021ZM286.504,192.021L287.604,192.021L289.234,196.844L290.852,192.021L291.941,192.021L291.941,197.725L291.211,197.725L291.211,194.359C291.211,194.242 291.214,194.049 291.219,193.78C291.224,193.511 291.227,193.222 291.227,192.914L289.608,197.725L288.848,197.725L287.218,192.914L287.218,193.089C287.218,193.229 287.221,193.442 287.228,193.728C287.234,194.014 287.237,194.224 287.237,194.359L287.237,197.725L286.504,197.725L286.504,192.021Z"/>
        </clipPath>
        <g clip-path="url(#_clip1)">
            <rect x="276.217" y="187.021" width="20.724" height="15.704" style="fill-rule:nonzero;"/>
        </g>
        <clipPath id="_clip2">
            <path d="M122.332,194.323C122.332,198.608 122.29,202.635 122.351,206.66C122.379,208.484 121.6,209.648 119.834,209.691C118.069,209.735 117.142,208.574 117.141,206.788C117.133,194.468 117.133,182.149 117.144,169.829C117.145,168.144 118.031,167.089 119.698,167.043C121.694,166.989 122.414,168.297 122.385,170.395C126.086,167.69 130.018,166.229 134.5,166.829C138.913,167.42 142.531,169.429 145.178,173.06C149.538,179.04 149.147,187.391 144.298,192.713C138.606,198.959 130.864,199.59 122.332,194.323ZM132.592,192.69C138.276,192.698 142.992,187.962 142.94,182.297C142.888,176.646 138.377,172.161 132.69,172.108C126.986,172.055 122.294,176.741 122.345,182.441C122.394,188.04 127.035,192.682 132.592,192.69Z"/>
        </clipPath>
        <g clip-path="url(#_clip2)">
            <rect x="112.136" y="161.695" width="41.072" height="52.998" style="fill-rule:nonzero;"/>
        </g>
        <clipPath id="_clip3">
            <path d="M77.119,138.575C73.743,138.574 70.363,138.672 66.993,138.536C65.066,138.459 65.136,139.167 65.716,140.581C68.318,146.915 76.663,148.967 81.855,144.493C82.768,143.707 83.612,142.908 84.959,143.282C87.192,143.902 87.585,146.282 85.749,148.12C81.166,152.71 73.017,153.542 67.194,150.016C61.042,146.292 58.222,138.88 60.333,131.982C62.463,125.02 68.786,120.728 76.379,121.089C83.183,121.412 89.136,126.657 90.512,133.54C91.251,137.239 90.202,138.571 86.539,138.575C83.399,138.578 80.259,138.575 77.119,138.575ZM75.211,133.339C77.879,133.339 80.548,133.311 83.216,133.352C84.449,133.371 85.073,133.166 84.299,131.781C82.322,128.249 79.354,126.35 75.324,126.326C71.203,126.301 68.147,128.174 66.129,131.815C65.336,133.245 66.01,133.369 67.206,133.352C69.874,133.312 72.542,133.339 75.211,133.339Z"/>
        </clipPath>
        <g clip-path="url(#_clip3)">
            <rect x="54.639" y="116.068" width="41.095" height="41.129" style="fill-rule:nonzero;"/>
        </g>
        <clipPath id="_clip4">
            <path d="M191.399,124.609C191.57,122.55 192.286,121.087 194.386,121.337C196.498,121.589 196.795,123.22 196.789,125.037C196.76,132.781 196.767,140.526 196.784,148.27C196.787,150.075 196.494,151.712 194.323,151.885C192.238,152.051 191.43,150.732 191.533,148.446C187.193,151.804 182.592,152.942 177.569,151.803C174.006,150.995 171.093,149.036 168.861,146.11C164.238,140.052 164.663,131.593 169.879,125.894C174.113,121.269 182.725,118.408 191.399,124.609ZM181.182,126.314C175.502,126.346 171.013,130.839 170.992,136.513C170.971,142.313 175.54,146.918 181.28,146.882C187.012,146.847 191.644,142.122 191.543,136.414C191.443,130.78 186.83,126.282 181.182,126.314Z"/>
        </clipPath>
        <g clip-path="url(#_clip4)">
            <rect x="160.66" y="116.049" width="41.129" height="41.182" style="fill-rule:nonzero;"/>
        </g>
        <clipPath id="_clip5">
            <path d="M169.134,184.252C165.68,184.251 162.226,184.293 158.774,184.231C157.385,184.206 156.968,184.477 157.498,185.966C159.753,192.31 168.323,194.745 173.499,190.444C173.801,190.193 174.071,189.902 174.374,189.653C175.669,188.589 177.008,188.55 178.145,189.791C179.305,191.057 179.058,192.395 177.882,193.559C174.342,197.065 170.023,198.374 165.172,197.82C157.213,196.911 151.345,189.917 151.564,181.758C151.78,173.748 158.125,167.251 166.28,166.692C173.967,166.165 181.138,171.87 182.484,179.582C183.076,182.974 182.015,184.241 178.552,184.25C175.413,184.259 172.273,184.252 169.134,184.252ZM167.19,179.008C169.931,179.008 172.672,178.981 175.412,179.02C176.543,179.037 176.768,178.684 176.321,177.633C175.023,174.579 170.843,171.827 167.191,171.956C163.156,172.098 160.014,173.91 158.009,177.542C157.361,178.716 157.747,179.043 158.968,179.023C161.708,178.977 164.449,179.008 167.19,179.008Z"/>
        </clipPath>
        <g clip-path="url(#_clip5)">
            <rect x="146.558" y="161.659" width="41.081" height="41.284" style="fill-rule:nonzero;"/>
        </g>
        <clipPath id="_clip6">
            <path d="M77.236,184.252C73.783,184.252 70.327,184.326 66.876,184.221C65.133,184.168 65.122,184.766 65.663,186.142C68.131,192.422 76.307,194.68 81.554,190.479C81.799,190.282 82.037,190.076 82.268,189.863C83.547,188.676 84.925,188.369 86.183,189.763C87.521,191.245 86.992,192.575 85.661,193.859C80.806,198.541 72.861,199.285 66.922,195.551C60.925,191.78 58.249,184.429 60.391,177.61C62.522,170.822 69.087,166.229 75.996,166.691C83.267,167.177 89.216,172.347 90.544,179.329C91.088,182.19 90.582,184.552 86.418,184.29C83.369,184.097 80.298,184.252 77.236,184.252ZM75.212,179.009C77.874,179.009 80.539,178.948 83.199,179.031C84.863,179.083 84.856,178.487 84.165,177.272C82.148,173.726 78.998,171.94 75.078,171.995C71.16,172.05 68.06,173.933 66.118,177.508C65.536,178.579 65.643,179.05 66.989,179.024C69.729,178.971 72.471,179.008 75.212,179.009Z"/>
        </clipPath>
        <g clip-path="url(#_clip6)">
            <rect x="54.66" y="161.659" width="41.064" height="41.268" style="fill-rule:nonzero;"/>
        </g>
        <clipPath id="_clip7">
            <path d="M134.84,124.559C134.999,122.472 135.798,121.078 137.893,121.346C139.856,121.596 140.207,123.119 140.199,124.871C140.165,132.607 140.168,140.343 140.197,148.08C140.204,149.848 140.086,151.55 137.945,151.875C135.735,152.21 135,150.7 134.826,148.772C125.405,153.844 117.76,153.014 112.53,146.422C107.889,140.57 108.029,132.136 112.719,126.547C116.856,121.618 125.533,118.113 134.84,124.559ZM124.705,126.314C119.04,126.309 114.483,130.785 114.401,136.436C114.318,142.169 118.908,146.852 124.644,146.885C130.318,146.917 135.027,142.178 134.968,136.494C134.91,130.853 130.339,126.319 124.705,126.314Z"/>
        </clipPath>
        <g clip-path="url(#_clip7)">
            <rect x="104.124" y="116.052" width="41.075" height="41.001" style="fill-rule:nonzero;"/>
        </g>
        <clipPath id="_clip8">
            <path d="M242.018,194.435C233.799,199.58 225.565,198.86 220.287,192.704C215.12,186.677 215.055,178.213 220.13,172.136C225.39,165.838 233.594,165.102 242.022,170.208C242.111,169.735 242.13,169.255 242.294,168.833C242.816,167.494 243.819,166.829 245.249,167.061C246.705,167.297 247.386,168.274 247.387,169.726C247.393,178.086 247.385,186.447 247.397,194.807C247.4,196.387 246.668,197.465 245.143,197.627C243.058,197.847 242.277,196.418 242.018,194.435ZM242.181,182.241C242.171,176.613 237.608,171.98 232.021,171.926C226.322,171.872 221.766,176.5 221.768,182.342C221.77,188.049 226.225,192.564 231.892,192.603C237.628,192.642 242.19,188.047 242.181,182.241Z"/>
        </clipPath>
        <g clip-path="url(#_clip8)">
            <rect x="211.367" y="161.837" width="41.03" height="41.02" style="fill-rule:nonzero;"/>
        </g>
        <clipPath id="_clip9">
            <path d="M252.203,182.264C252.202,178.394 252.222,174.524 252.191,170.655C252.179,169.255 252.215,167.882 253.703,167.237C255.126,166.621 256.294,167.109 257.166,168.376C257.948,169.512 258.53,168.384 259.086,168.115C266.925,164.325 276.287,168.519 278.188,176.72C278.694,178.902 278.394,181.126 278.422,183.329C278.47,187.119 278.422,190.91 278.441,194.701C278.45,196.515 277.557,197.659 275.805,197.647C274.063,197.634 273.197,196.523 273.216,194.676C273.264,190.017 273.252,185.357 273.227,180.698C273.194,174.592 268.605,170.924 262.697,172.249C259.36,172.998 257.564,175.295 257.509,179.143C257.443,183.881 257.493,188.62 257.492,193.358C257.492,193.911 257.535,194.47 257.468,195.015C257.271,196.636 256.382,197.736 254.721,197.66C253.092,197.585 252.202,196.528 252.203,194.821C252.207,190.635 252.204,186.449 252.203,182.264Z"/>
        </clipPath>
        <g clip-path="url(#_clip9)">
            <rect x="247.189" y="161.707" width="36.296" height="40.956" style="fill-rule:nonzero;"/>
        </g>
        <clipPath id="_clip10">
            <path d="M47.095,152.387C44.122,152.31 41.343,151.605 38.958,149.733C37.609,148.674 36.727,147.294 37.744,145.645C38.813,143.912 40.413,144.316 41.884,145.18C43.452,146.103 45.025,147.022 46.88,147.131C48.766,147.241 50.647,146.948 51.432,144.95C52.214,142.958 50.891,141.569 49.402,140.619C47.358,139.312 45.151,138.263 43.016,137.099C38.607,134.694 36.802,131.299 37.817,127.33C38.814,123.432 42.784,120.683 47.404,120.843C49.943,120.93 52.403,121.501 54.471,123.114C55.741,124.106 57.045,125.278 56.046,127.074C55.034,128.893 53.378,128.412 51.896,127.705C50.185,126.889 48.526,126.026 46.533,126.246C45.114,126.403 43.906,126.833 43.382,128.3C42.828,129.85 43.708,130.908 44.785,131.759C46.957,133.476 49.55,134.477 51.935,135.835C53.819,136.906 55.425,138.226 56.329,140.283C59.062,146.498 54.601,152.354 47.095,152.387Z"/>
        </clipPath>
        <g clip-path="url(#_clip10)">
            <rect x="32.303" y="115.836" width="29.836" height="41.551" style="fill-rule:nonzero;"/>
        </g>
        <clipPath id="_clip11">
            <path d="M102.586,177.406C104.501,174.41 106.268,171.731 107.943,168.995C108.956,167.341 110.263,166.504 112.025,167.591C113.893,168.742 113.406,170.312 112.403,171.873C110.446,174.917 108.584,178.024 106.575,181.033C105.903,182.04 105.905,182.741 106.569,183.742C108.612,186.822 110.52,189.992 112.526,193.098C113.527,194.648 113.689,196.227 112.035,197.195C110.533,198.073 109.039,197.615 108.036,195.953C106.694,193.731 105.178,191.614 103.876,189.37C102.968,187.804 102.383,187.375 101.332,189.288C100.084,191.559 98.61,193.708 97.195,195.883C96.11,197.551 94.26,198.139 93.036,197.138C91.612,195.975 91.803,194.543 92.695,193.124C94.664,189.995 96.604,186.846 98.642,183.762C99.308,182.754 99.283,181.993 98.632,181.004C96.643,177.982 94.732,174.908 92.807,171.844C91.838,170.302 91.389,168.656 93.257,167.55C95.042,166.493 96.33,167.446 97.322,169.073C98.987,171.804 100.734,174.484 102.586,177.406Z"/>
        </clipPath>
        <g clip-path="url(#_clip11)">
            <rect x="86.968" y="162.102" width="31.323" height="40.53" style="fill-rule:nonzero;"/>
        </g>
        <clipPath id="_clip12">
            <path d="M153.114,152.379C150.365,152.256 147.509,151.568 145.126,149.524C143.866,148.444 143.191,147.056 144.16,145.563C145.17,144.008 146.703,144.276 148.12,145.087C149.83,146.064 151.522,147.126 153.557,147.138C155.328,147.149 157.107,146.87 157.841,144.913C158.567,142.981 157.269,141.78 155.967,140.733C153.868,139.046 151.324,138.13 148.979,136.872C146.169,135.364 144.264,133.202 144.034,129.902C143.668,124.641 148.236,120.486 154.019,120.848C156.877,121.027 159.604,121.712 161.71,123.883C162.646,124.847 163.272,125.91 162.381,127.241C161.511,128.54 160.268,128.475 159.025,128.006C157.139,127.296 155.453,126.035 153.262,126.226C151.673,126.364 150.243,126.706 149.744,128.412C149.273,130.027 150.188,131.206 151.452,131.971C153.865,133.431 156.377,134.723 158.822,136.131C161.501,137.675 163.221,139.919 163.43,143.1C163.793,148.613 159.666,152.408 153.114,152.379Z"/>
        </clipPath>
        <g clip-path="url(#_clip12)">
            <rect x="138.7" y="115.826" width="29.752" height="41.553" style="fill-rule:nonzero;"/>
        </g>
        <clipPath id="_clip13">
            <path d="M94.567,136.372C94.567,132.505 94.586,128.638 94.558,124.772C94.547,123.342 94.755,122.067 96.272,121.489C97.655,120.962 98.822,121.422 99.503,122.645C100.036,123.602 100.467,123.053 100.944,122.78C102.965,121.625 105.127,121.047 107.453,121.055C109.125,121.061 110.277,121.909 110.363,123.515C110.448,125.114 109.372,126.09 107.747,126.307C107.515,126.339 107.275,126.302 107.041,126.326C101.926,126.839 99.853,129.087 99.795,134.334C99.743,139.068 99.754,143.803 99.798,148.537C99.816,150.426 99.383,151.934 97.174,151.89C95.001,151.846 94.551,150.299 94.56,148.444C94.582,144.42 94.567,140.396 94.567,136.372Z"/>
        </clipPath>
        <g clip-path="url(#_clip13)">
            <rect x="89.557" y="116.055" width="25.81" height="40.836" style="fill-rule:nonzero;"/>
        </g>
        <clipPath id="_clip14">
            <path d="M186.845,182.314C186.845,178.284 186.863,174.255 186.834,170.226C186.826,168.969 186.96,167.8 188.262,167.254C189.573,166.705 190.826,166.951 191.556,168.212C192.126,169.196 192.63,168.803 193.238,168.433C194.957,167.388 196.867,166.944 198.824,166.724C200.87,166.494 202.409,167.53 202.483,169.154C202.575,171.192 201.235,171.863 199.513,172.102C193.46,172.943 192.061,174.559 192.059,180.715L192.059,192.803C192.059,196.281 191.268,197.717 189.368,197.691C187.486,197.664 186.844,196.467 186.844,192.979C186.844,189.424 186.844,185.869 186.845,182.314Z"/>
        </clipPath>
        <g clip-path="url(#_clip14)">
            <rect x="181.834" y="161.692" width="25.654" height="40.999" style="fill-rule:nonzero;"/>
        </g>
        <clipPath id="_clip15">
            <path d="M212.339,182.256C212.339,186.276 212.304,190.296 212.355,194.314C212.379,196.259 211.721,197.682 209.639,197.63C207.696,197.582 207.102,196.177 207.11,194.351C207.142,186.312 207.136,178.272 207.115,170.233C207.11,168.402 207.723,167.048 209.715,167.046C211.681,167.043 212.367,168.337 212.35,170.197C212.313,174.217 212.339,178.236 212.339,182.256Z"/>
        </clipPath>
        <g clip-path="url(#_clip15)">
            <rect x="202.11" y="162.046" width="15.245" height="40.586" style="fill-rule:nonzero;"/>
        </g>
        <clipPath id="_clip16">
            <path d="M212.878,160.087C212.908,161.855 211.616,163.23 209.859,163.298C208.018,163.369 206.735,162.186 206.655,160.345C206.569,158.33 207.77,157.037 209.725,157.041C211.548,157.044 212.848,158.299 212.878,160.087Z"/>
        </clipPath>
        <g clip-path="url(#_clip16)">
            <rect x="201.651" y="152.041" width="16.227" height="16.26" style="fill-rule:nonzero;"/>
        </g>
        <clipPath id="_clip17">
            <path d="M61.453,105.152L61.453,111.522C61.453,113.185 62.28,114.017 63.934,114.017L70.325,114.017C71.979,114.017 72.806,113.185 72.806,111.522L72.806,105.152C72.806,103.489 71.979,102.658 70.325,102.658L63.934,102.658C62.28,102.658 61.453,103.489 61.453,105.152Z"/>
        </clipPath>
        <g clip-path="url(#_clip17)">
            <rect x="56.453" y="97.658" width="21.353" height="21.359" style="fill-rule:nonzero;"/>
        </g>
        <clipPath id="_clip18">
            <path d="M34.845,94.435L34.845,105.642C34.845,108.567 36.3,110.03 39.21,110.03L50.454,110.03C53.364,110.03 54.818,108.567 54.818,105.642L54.818,94.435C54.818,91.509 53.364,90.047 50.454,90.047L39.21,90.047C36.3,90.047 34.845,91.509 34.845,94.435Z"/>
        </clipPath>
        <g clip-path="url(#_clip18)">
            <rect x="29.845" y="85.047" width="29.973" height="29.983" style="fill-rule:nonzero;"/>
        </g>
        <clipPath id="_clip19">
            <path d="M8.293,113.944L8.293,126.56C8.293,129.853 9.93,131.499 13.206,131.499L25.863,131.499C29.138,131.499 30.776,129.853 30.776,126.56L30.776,113.944C30.776,110.651 29.138,109.005 25.863,109.005L13.206,109.005C9.93,109.005 8.293,110.651 8.293,113.944Z"/>
        </clipPath>
        <g clip-path="url(#_clip19)">
            <rect x="3.293" y="104.005" width="32.483" height="32.494" style="fill-rule:nonzero;"/>
        </g>
        <clipPath id="_clip20">
            <path d="M13.634,143.251L13.634,150.966C13.634,152.98 14.636,153.987 16.639,153.987L24.38,153.987C26.383,153.987 27.384,152.98 27.384,150.966L27.384,143.251C27.384,141.237 26.383,140.23 24.38,140.23L16.639,140.23C14.636,140.23 13.634,141.237 13.634,143.251Z"/>
        </clipPath>
        <g clip-path="url(#_clip20)">
            <rect x="8.634" y="135.23" width="23.75" height="23.757" style="fill-rule:nonzero;"/>
        </g>
        <clipPath id="_clip21">
            <path d="M29.557,162.128L29.557,171.155C29.557,173.511 30.728,174.689 33.072,174.689L42.128,174.689C44.472,174.689 45.644,173.511 45.644,171.155L45.644,162.128C45.644,159.772 44.472,158.594 42.128,158.594L33.072,158.594C30.728,158.594 29.557,159.772 29.557,162.128Z"/>
        </clipPath>
        <g clip-path="url(#_clip21)">
            <rect x="24.557" y="153.594" width="26.087" height="26.095" style="fill-rule:nonzero;"/>
        </g>
    </g>
</svg>
