<svg width="601" height="80" viewBox="0 0 601 80" fill="none" xmlns="http://www.w3.org/2000/svg">
<path d="M154.5 26.3H145.3H133.3H125.2C120.2 26.3 116.1 30.5 116 35.8V35.9001C116 36.0001 116 36.0001 116 36.1001V55.2001C116 55.3001 116 55.4001 116 55.4001V79.7001H127.2V59.1001H151.4V48.4001H127.2V37.0001H154.6L154.5 26.3H154C154.4 26.3 154.5 26.3 154.5 26.3Z" fill="black"/>
<path d="M311.5 37.2V26.4H309.6C304.5 26.4 300.4 30.8 300.4 36.1V37.1V37.2V79.7H336.8V69.1H311.6V37.2H311.5Z" fill="black"/>
<path d="M365.2 58H389.1V47.6H365.2V36.8H392.4V26.4H383.4H371.4H363.3C358.2 26.4 354.1 30.8 354.1 36.1V36.9V79.7H392.7V69.3H365.2V58Z" fill="black"/>
<path d="M584.4 47.9C575.9 45.6 573.8 44.5 573.8 41.1V41C573.8 38.5 576 36.5 580.1 36.5C584.2 36.5 588.5 38.4 592.9 41.6L598.5 33C593.5 28.8 587.4 26.4 580.2 26.4C570.1 26.4 563 32.6 563 42V42.1C563 52.4 569.4 55.3 579.3 58C587.6 60.2 589.3 61.7 589.3 64.6V64.8C589.3 67.8 586.6 69.6 582.2 69.6C576.6 69.6 571.9 67.2 567.5 63.3L561.1 71.4C567 77 574.5 79.7 582 79.7C592.6 79.7 600.1 73.9 600.1 63.6V63.4C600 54.4 594.4 50.7 584.4 47.9Z" fill="black"/>
<path d="M523.7 69.2C515.3 69.2 509.5 61.7999 509.5 52.9999V52.7999C509.5 43.9999 515.5 36.7 523.7 36.7C528.6 36.7 532.5 38.8999 536.3 42.4999L543.1 34.2C538.6 29.5 533 26.2 523.8 26.2C508.7 26.2 498.2 38.1999 498.2 52.8999V53.0999C498.2 67.8999 508.9 79.5999 523.3 79.5999C532.8 79.5999 538.4 75.9999 543.4 70.3999L536.6 63.0999C532.7 66.8999 529.3 69.2 523.7 69.2Z" fill="black"/>
<path d="M271.9 63.6C271.9 67.6 268.9 69.4 264 69.4H250.8V57.7H263.7C269.4 57.7 271.9 59.9 271.9 63.5V63.6ZM250.7 36.6H261.7C266.4 36.6 269 38.6 269 42.1V42.3C269 46.2 265.9 47.9 261 47.9H250.7V36.6ZM273.5 51.8C277.1 49.7 280.2 46.3 280.2 40.3V40.2C280.2 31.9 273.9 26.5 263.7 26.4H263.5H257.3H249.2C244.1 26.4 240 30.8 240 36.1V36.4V79.8H264C275.5 79.8 283 74.9 283 65.2V65C283 57.8 279.3 54.2 273.5 51.8Z" fill="black"/>
<path d="M448.7 26.3H439.5H427.5H419.4C414.3 26.3 410.2 30.7001 410.2 36.0001V37.1001H425.6V79.6001H436.8V37.1001H452.2V26.3H448.7Z" fill="black"/>
<path d="M469.4 36.1V55.2C469.4 55.3 469.4 55.3 469.4 55.4V79.7H480.6V37.2V26.4H478.7C473.6 26.3 469.4 30.7 469.4 36.1Z" fill="black"/>
<path d="M195.4 40.1L202.2 57.4H188.7L195.4 40.1ZM190.3 26.4L168.7 79.8H180.1L184.7 67.9H206.1L210.7 79.8H222.4L200.8 26.4H190.3Z" fill="black"/>
<path d="M154.5 26.4H145.3H133.3H125.2C120.2 26.4 116.1 30.6 116 35.9V36C116 36.1 116 36.1 116 36.2V55.3C116 55.4 116 55.5 116 55.5V79.8H127.2V59.2H151.4V48.5H127.2V37.1H154.6L154.5 26.4H154C154.4 26.4 154.5 26.4 154.5 26.4Z" fill="black"/>
<path d="M311.5 37.2V26.4H309.6C304.5 26.4 300.4 30.8 300.4 36.1V37.1V37.2V79.7H336.8V69.1H311.6V37.2H311.5Z" fill="black"/>
<path d="M365.2 58.1H389.1V47.7H365.2V36.9H392.4V26.5H383.4H371.4H363.3C358.2 26.5 354.1 30.9 354.1 36.2V37V79.8H392.7V69.4H365.2V58.1Z" fill="black"/>
<path d="M584.4 47.9C575.9 45.6 573.8 44.5 573.8 41.1V41C573.8 38.5 576 36.5 580.1 36.5C584.2 36.5 588.5 38.4 592.9 41.6L598.5 33C593.5 28.8 587.4 26.4 580.2 26.4C570.1 26.4 563 32.6 563 42V42.1C563 52.4 569.4 55.3 579.3 58C587.6 60.2 589.3 61.7 589.3 64.6V64.8C589.3 67.8 586.6 69.6 582.2 69.6C576.6 69.6 571.9 67.2 567.5 63.3L561.1 71.4C567 77 574.5 79.7 582 79.7C592.6 79.7 600.1 73.9 600.1 63.6V63.5C600 54.5 594.4 50.7 584.4 47.9Z" fill="black"/>
<path d="M523.7 69.3C515.3 69.3 509.5 61.9001 509.5 53.1001V52.9001C509.5 44.1001 515.5 36.8 523.7 36.8C528.6 36.8 532.5 39.0001 536.3 42.6001L543.1 34.3C538.6 29.6 533 26.3 523.8 26.3C508.7 26.3 498.2 38.3001 498.2 53.0001V53.2001C498.2 68.0001 508.9 79.7001 523.3 79.7001C532.8 79.7001 538.4 76.1001 543.4 70.5001L536.6 63.2001C532.7 66.9001 529.3 69.3 523.7 69.3Z" fill="black"/>
<path d="M271.9 63.7C271.9 67.6 268.9 69.5 264 69.5H250.8V57.8H263.7C269.4 57.8 271.9 60 271.9 63.6V63.7ZM250.7 36.7H261.7C266.4 36.7 269 38.7 269 42.2V42.4C269 46.3 265.9 48 261 48H250.7V36.7ZM273.5 51.8C277.1 49.7 280.2 46.3 280.2 40.3V40.2C280.2 31.9 273.9 26.5 263.7 26.4H263.5H257.3H249.2C244.1 26.4 240 30.8 240 36.1V36.4V79.8H264C275.5 79.8 283 74.9 283 65.2V65C283 57.8 279.3 54.2 273.5 51.8Z" fill="black"/>
<path d="M448.7 26.4H439.5H427.5H419.4C414.3 26.4 410.2 30.8 410.2 36.1V37.2H425.6V79.7H436.8V37.2H452.2V26.4H448.7Z" fill="black"/>
<path d="M469.4 36.1V55.2C469.4 55.3 469.4 55.3 469.4 55.4V79.7H480.6V37.2V26.4H478.7C473.6 26.4 469.4 30.7 469.4 36.1Z" fill="black"/>
<path d="M86.2 4.60001C85.4 7.20001 83.9 10.7 81.2 13.5C81.2 13.5 77.8 18.4 69.6 21.8C69.6 21.8 64.4 24.1 55.2 25C55.2 25 47.4 25.9 35.7 25.7C34.8 25.7 33.1 25.6 33.1 25.6H33C21.5 25.5 16.7 27.5 16.7 27.5C11 29.5 7.4 35.7 5.2 41.1C5.1 41.3 2.4 48.1 0.0999985 60.4C0.0999985 60.4 0.0999985 60.4 0.0999985 60.5V32.7C0.0999985 31.3 0.199997 29.8 0.299997 28.4C1.3 19.6 6.3 12.1 13.4 8C14.9 7 21.7 3.99999 32.6 3.89999C35.9 3.89999 54.3 3.69999 62.6 3.39999C81.7 2.69999 87.2 0 87.2 0C86.7 3.1 86.2 4.60001 86.2 4.60001ZM58 47C46.8 51.9 26.5 51.2 22.7 52C18.9 52.7 9.7 51.7 3 66C4.4 64.2 6.6 63.1 9 63.1C13.3 63.1 16.8 66.8 16.8 71.3C16.8 75.8 13.3 79.5 9 79.5C5.8 79.5 3.1 77.5 1.9 74.7C1.8 74.4 1.6 74 1.5 73.7C1.5 73.6 1.4 73.5 1.4 73.3C1.3 73 1.3 72.8 1.3 72.5C1.2 72.2 1.2 71.8 1.2 71.4C1.2 71.1 1.2 70.8 1.2 70.5C1.3 69.5 1.4 68.4 1.5 67.4V67.3C1.5 67.2 1.5 67.1 1.5 67C2.4 60.7 4.4 54.2 4.4 54.2C5.5 50.4 6.1 49 6.2 48.9C8.4 43.5 12.1 37.3 17.8 35.3C17.8 35.3 22.6 33.3 34.2 33.4H34.3H34.4C35.2 33.4 36 33.4 36.9 33.5C48.6 33.7 56.4 32.8 56.4 32.8C65.6 32 71.1 30.2 75.6 27.1C74.7 30.8 71 41.3 58 47Z" fill="black"/>
</svg>
