<svg width="368" height="46" viewBox="0 0 368 46" fill="none" xmlns="http://www.w3.org/2000/svg">
<g clip-path="url(#clip0_3221_354)">
<path fill-rule="evenodd" clip-rule="evenodd" d="M39.8218 11.406L39.1927 11.7193C37.4731 9.58854 35.8375 7.77112 34.2857 6.26703C32.7339 4.76294 31.2241 3.65577 29.7562 2.9455C29.0432 2.61126 27.7536 2.32925 25.8873 2.09945C24.021 1.86966 21.8506 1.75477 19.3761 1.75477C18.9567 1.75477 18.4744 1.76521 17.9292 1.7861C17.384 1.80699 16.8598 1.82788 16.3565 1.84877C15.8532 1.86966 15.3814 1.89055 14.941 1.91144C14.5007 1.93233 14.1756 1.94278 13.9659 1.94278C13.924 2.19346 13.8716 2.44414 13.8087 2.69482C13.7457 2.94551 13.6933 3.23796 13.6514 3.57221C13.6094 3.90645 13.5675 4.33469 13.5256 4.85695C13.4836 5.3792 13.4417 6.01635 13.3997 6.76839C13.3578 8.23071 13.3263 9.82878 13.3054 11.5627C13.2844 13.2966 13.2739 14.9364 13.2739 16.4823V22.436H14.4063C15.0773 22.436 15.8218 22.4151 16.6396 22.3733C17.4574 22.3315 18.3067 22.2793 19.1874 22.2166C20.0682 22.1539 20.8021 22.0599 21.3893 21.9346C22.8991 21.6004 24.0944 21.1617 24.9751 20.6185C25.8558 20.0754 26.5478 19.4278 27.0511 18.6757C27.5544 17.9237 27.9109 17.0986 28.1206 16.2003C28.3303 15.302 28.519 14.3306 28.6868 13.2861H29.4417V33.4659H28.6868C28.3512 32.129 27.8689 30.7189 27.2398 29.2357C26.6107 27.7525 25.8558 26.614 24.9751 25.8202C24.1782 25.1099 23.329 24.5772 22.4273 24.2221C21.5256 23.8669 20.4666 23.6476 19.2503 23.564C18.6212 23.5223 18.076 23.4909 17.6147 23.47C17.1533 23.4491 16.713 23.4387 16.2936 23.4387H13.2739V31.2098C13.2739 32.3797 13.2844 33.4555 13.3054 34.4373C13.3263 35.4192 13.3368 36.2652 13.3368 36.9755C13.3788 38.3125 13.4522 39.5763 13.557 40.767C13.6619 41.9578 13.903 42.8456 14.2805 43.4305C14.6579 44.0154 15.2975 44.4646 16.1992 44.7779C17.1009 45.0913 18.4115 45.2897 20.1311 45.3733V46H0V45.3733C1.0485 45.2062 2.02359 44.9346 2.92529 44.5586C3.827 44.1826 4.57143 43.6603 5.15858 42.9918C5.36828 42.7411 5.53604 42.3756 5.66186 41.8951C5.78768 41.4146 5.90301 40.861 6.00786 40.2343C6.11271 39.6076 6.18611 38.9496 6.22805 38.2602C6.26999 37.5708 6.29096 36.8919 6.29096 36.2234C6.29096 35.6385 6.30144 34.8447 6.32241 33.842C6.34338 32.8392 6.36435 31.7425 6.38532 30.5518C6.40629 29.361 6.41678 28.139 6.41678 26.8856V11.03C6.41678 10.2779 6.40629 9.505 6.38532 8.71117C6.36435 7.91734 6.32241 7.16531 6.2595 6.45504C6.19659 5.74477 6.09174 5.10763 5.94495 4.5436C5.79816 3.97956 5.59895 3.57221 5.34731 3.32153C4.71821 2.65304 4.04719 2.2248 3.33421 2.03678C2.62123 1.84877 1.69856 1.67121 0.566186 1.50409V0.877384H35.5439L39.8218 11.406ZM108.561 46V45.3733C108.687 45.3733 108.991 45.3315 109.473 45.248C109.955 45.1644 110.459 45.0182 110.983 44.8093C111.507 44.6004 111.969 44.3079 112.367 43.9319C112.765 43.5559 112.965 43.0754 112.965 42.4905C112.965 42.1144 112.849 41.4982 112.619 40.6417C112.388 39.7852 112.063 38.7407 111.644 37.5082C111.224 36.2757 110.742 34.9074 110.197 33.4033C109.651 31.8992 109.064 30.3324 108.435 28.703H91.7012C91.0721 30.2907 90.464 31.8052 89.8768 33.2466C89.2896 34.688 88.7025 36.1399 88.1153 37.6022C87.2346 39.8583 86.7942 41.4459 86.7942 42.3651C86.7942 42.9083 86.962 43.3574 87.2975 43.7125C87.633 44.0677 88.0629 44.3601 88.5872 44.5899C89.1114 44.8197 89.6776 44.9868 90.2857 45.0913C90.8938 45.1957 91.4705 45.2897 92.0157 45.3733V46H78.616V45.3106C79.7064 45.1853 80.6396 44.8928 81.4155 44.4332C82.1914 43.9737 82.6422 43.6603 82.768 43.4932C83.0616 43.2007 83.5439 42.5114 84.2149 41.4251C84.886 40.3388 85.7038 38.7303 86.6684 36.5995C87.5491 34.6358 88.5347 32.4006 89.6252 29.8937C90.7156 27.3869 91.8375 24.807 92.9908 22.1539C94.1442 19.5009 95.287 16.827 96.4194 14.1322C97.5518 11.4373 98.6212 8.92008 99.6278 6.58038L98.9987 5.20163C99.7536 4.86739 100.435 4.47048 101.043 4.0109C101.651 3.55131 102.186 3.07085 102.647 2.56948C103.109 2.06812 103.497 1.58765 103.811 1.12807C104.126 0.668481 104.367 0.292463 104.535 0H105.038C106.338 3.46777 107.575 6.75793 108.75 9.87057C109.924 12.9832 111.046 15.9809 112.115 18.8638C113.185 21.7466 114.223 24.5354 115.229 27.2302C116.236 29.9251 117.242 32.5885 118.249 35.2207C118.71 36.5159 119.14 37.5917 119.539 38.4482C119.937 39.3047 120.388 40.2761 120.891 41.3624C120.975 41.5295 121.164 41.822 121.457 42.2398C121.751 42.6576 122.139 43.0858 122.621 43.5245C123.104 43.9632 123.701 44.3497 124.414 44.6839C125.127 45.0182 125.966 45.2062 126.931 45.248V46H108.561ZM100.32 8.0218C100.068 8.56494 99.7012 9.42143 99.2189 10.5913C98.7366 11.7611 98.1389 13.1816 97.4259 14.8529C96.713 16.5241 95.9266 18.4146 95.0668 20.5245C94.2071 22.6344 93.2739 24.9219 92.2674 27.3869H107.932C107.219 25.5068 106.495 23.6267 105.761 21.7466C105.028 19.8665 104.315 18.0595 103.623 16.3256C102.931 14.5917 102.301 13.0041 101.735 11.5627C101.169 10.1212 100.697 8.94097 100.32 8.0218ZM188.813 46H169.751V45.3733C170.799 45.2062 171.775 44.9346 172.676 44.5586C173.578 44.1826 174.343 43.6394 174.972 42.9292C175.182 42.6785 175.339 42.3233 175.444 41.8638C175.549 41.4042 175.633 40.861 175.696 40.2343C175.759 39.6076 175.801 38.9496 175.822 38.2602C175.843 37.5708 175.853 36.8919 175.853 36.2234C175.853 35.6385 175.864 34.8447 175.885 33.842C175.906 32.8392 175.927 31.7425 175.948 30.5518C175.969 29.361 175.979 28.139 175.979 26.8856V8.77384C175.979 8.02179 175.948 7.32198 175.885 6.67439C175.822 6.02679 175.727 5.44187 175.602 4.91962C175.476 4.39736 175.287 3.99001 175.035 3.69755C174.448 2.98728 173.725 2.47548 172.865 2.16213C172.005 1.84877 171.03 1.62943 169.94 1.50409V0.877384H188.75V1.50409C187.869 1.62943 186.925 1.85922 185.919 2.19346C184.912 2.5277 184.136 3.19618 183.591 4.19891C183.214 4.90918 183.014 5.80744 182.993 6.89373C182.972 7.98002 182.941 9.00363 182.899 9.96458C182.899 11.0091 182.889 12.0431 182.868 13.0668C182.847 14.0904 182.836 15.1244 182.836 16.1689V37.1635C182.836 38.3751 182.857 39.545 182.899 40.673C182.941 41.8011 183.13 42.5949 183.465 43.0545C183.969 43.7648 184.765 44.3079 185.856 44.6839C186.946 45.0599 187.932 45.2897 188.813 45.3733V46ZM284.037 46H271.14C270.763 45.624 270.49 45.342 270.322 45.1539C270.155 44.9659 269.966 44.7466 269.756 44.4959C269.547 44.2452 269.284 43.8797 268.97 43.3992C268.655 42.9187 268.163 42.198 267.491 41.2371C266.695 40.0672 265.992 39.0123 265.384 38.0722C264.776 37.1321 264.157 36.2025 263.528 35.2834C262.899 34.3642 262.218 33.4346 261.484 32.4945C260.75 31.5545 259.879 30.4995 258.873 29.3297C258.034 28.3687 257.122 27.4705 256.136 26.6349C255.151 25.7993 254.113 25.277 253.022 25.0681C252.225 24.901 251.617 24.8174 251.198 24.8174C250.82 24.8174 250.338 24.7965 249.751 24.7548V31.8365C249.751 33.842 249.772 35.534 249.814 36.9128C249.856 38.2498 249.898 39.3987 249.94 40.3597C249.982 41.3206 250.212 42.1144 250.632 42.7411C250.967 43.2843 251.617 43.8379 252.582 44.4019C253.547 44.9659 254.889 45.2897 256.608 45.3733V46H236.477V45.3733C237.526 45.2062 238.532 44.9555 239.497 44.6213C240.461 44.287 241.216 43.7857 241.761 43.1172C241.971 42.8665 242.139 42.4905 242.265 41.9891C242.391 41.4877 242.485 40.9237 242.548 40.297C242.611 39.6703 242.663 39.0018 242.705 38.2915C242.747 37.5813 242.768 36.8919 242.768 36.2234C242.768 35.6385 242.778 34.8447 242.799 33.842C242.82 32.8392 242.841 31.7425 242.862 30.5518C242.883 29.361 242.894 28.139 242.894 26.8856V11.03C242.894 10.2779 242.883 9.51544 242.862 8.74251C242.841 7.96957 242.799 7.23842 242.737 6.54905C242.674 5.85967 242.569 5.23297 242.422 4.66894C242.275 4.1049 242.076 3.69755 241.824 3.44687C241.195 2.77838 240.493 2.32925 239.717 2.09945C238.941 1.86966 237.987 1.67121 236.855 1.50409V0.877384H239.434C240.86 0.877384 242.474 0.866939 244.278 0.846049C246.081 0.825159 247.885 0.814714 249.688 0.814714H254.092C256.902 0.814714 259.397 0.898273 261.578 1.06539C263.759 1.23252 265.751 1.79654 267.554 2.75749C269.4 3.71844 270.889 5.02406 272.021 6.67439C273.153 8.32471 273.72 10.4033 273.72 12.9101C273.72 14.456 273.436 15.8451 272.87 17.0777C272.304 18.3102 271.549 19.3965 270.605 20.3365C269.662 21.2766 268.561 22.0808 267.303 22.7493C266.045 23.4178 264.723 23.9818 263.339 24.4414V24.6294C264.052 25.0054 264.744 25.5486 265.415 26.2589C266.087 26.9691 266.737 27.7629 267.366 28.6403C268.456 30.228 269.641 31.941 270.92 33.7793C272.199 35.6176 273.342 37.247 274.349 38.6676C275.9 40.8402 277.41 42.4278 278.878 43.4305C280.346 44.4332 282.066 45.0808 284.037 45.3733V46ZM266.485 12.5341C266.485 10.445 265.961 8.58584 264.912 6.9564C263.864 5.32697 262.333 4.03179 260.32 3.07084C259.313 2.61126 258.254 2.27702 257.143 2.06812C256.031 1.85922 254.868 1.75477 253.651 1.75477C252.771 1.75477 252.058 1.77566 251.512 1.81744C250.967 1.85922 250.548 1.901 250.254 1.94278C250.212 2.19346 250.17 2.41281 250.128 2.60082C250.086 2.78883 250.055 3.02906 250.034 3.32153C250.013 3.61399 249.992 4.02134 249.971 4.5436C249.95 5.06585 249.919 5.80744 249.877 6.76839C249.835 8.23071 249.803 9.88101 249.782 11.7193C249.761 13.5577 249.751 15.3333 249.751 17.0463V23.9401C251.471 23.9401 253.075 23.8669 254.564 23.7207C256.052 23.5745 257.489 23.2716 258.873 22.812C260.215 22.3942 261.368 21.8302 262.333 21.1199C263.298 20.4096 264.084 19.6054 264.692 18.7071C265.3 17.8088 265.751 16.8374 266.045 15.7929C266.338 14.7484 266.485 13.6621 266.485 12.5341ZM368 34.03L364.855 46H326.354V45.3733C327.402 45.2062 328.377 44.9346 329.279 44.5586C330.181 44.1826 330.925 43.6603 331.512 42.9918C331.722 42.7411 331.89 42.3756 332.016 41.8951C332.142 41.4146 332.257 40.861 332.362 40.2343C332.467 39.6076 332.54 38.9496 332.582 38.2602C332.624 37.5708 332.645 36.8919 332.645 36.2234C332.645 35.6385 332.655 34.8447 332.676 33.842C332.697 32.8392 332.718 31.7425 332.739 30.5518C332.76 29.361 332.771 28.139 332.771 26.8856C332.771 25.5904 332.771 24.3788 332.771 23.2507V11.03C332.771 10.2779 332.76 9.505 332.739 8.71117C332.718 7.91734 332.676 7.16531 332.613 6.45504C332.55 5.74477 332.446 5.10763 332.299 4.5436C332.152 3.97956 331.953 3.57221 331.701 3.32153C331.072 2.65304 330.401 2.2248 329.688 2.03678C328.975 1.84877 328.052 1.67121 326.92 1.50409V0.877384H361.646L365.924 11.218L365.295 11.5313C361.898 7.31151 358.71 4.47049 355.733 3.00817C355.02 2.67393 353.699 2.38147 351.769 2.13079C349.84 1.88011 347.491 1.75477 344.723 1.75477C343.843 1.75477 342.931 1.7861 341.987 1.84877C341.043 1.91144 340.362 1.98456 339.942 2.06812C339.858 2.73661 339.785 4.11534 339.722 6.20436C339.659 8.29338 339.628 10.7166 339.628 13.4741C339.628 15.0618 339.628 16.3987 339.628 17.485C339.628 18.5713 339.638 19.4591 339.659 20.1485C339.68 20.8379 339.691 21.3706 339.691 21.7466C339.691 22.0808 339.691 22.3106 339.691 22.436C339.9 22.436 340.32 22.436 340.949 22.436C341.578 22.436 342.301 22.4151 343.119 22.3733C343.937 22.3315 344.755 22.2793 345.573 22.2166C346.391 22.1539 347.072 22.0599 347.617 21.9346C348.875 21.6421 349.924 21.2452 350.763 20.7439C351.602 20.2425 352.283 19.6367 352.807 18.9264C353.332 18.2162 353.751 17.391 354.066 16.451C354.38 15.5109 354.663 14.456 354.915 13.2861H355.67V33.0272H354.915C354.579 31.6903 354.066 30.3115 353.374 28.891C352.682 27.4705 351.958 26.4051 351.203 25.6948C350.532 25.1099 349.725 24.6294 348.781 24.2534C347.837 23.8774 346.737 23.6476 345.478 23.564C344.849 23.5223 344.325 23.4909 343.906 23.47C343.486 23.4491 343.067 23.4387 342.647 23.4387C342.27 23.4387 341.851 23.4387 341.389 23.4387C340.97 23.4387 340.425 23.4387 339.754 23.4387C339.67 24.0236 339.628 24.8801 339.628 26.0082C339.628 27.1362 339.628 28.3061 339.628 29.5177C339.628 30.0609 339.628 30.6876 339.628 31.3978C339.628 32.1081 339.628 32.8183 339.628 33.5286C339.628 34.1971 339.638 34.8342 339.659 35.4401C339.68 36.0459 339.691 36.5577 339.691 36.9755C339.733 38.3125 339.806 39.5763 339.911 40.767C340.016 41.9578 340.257 42.8456 340.634 43.4305C341.012 44.0154 341.913 44.4332 343.339 44.6839C344.765 44.9346 346.317 45.0599 347.995 45.0599C348.708 45.0599 349.62 45.0391 350.731 44.9973C351.843 44.9555 353.007 44.851 354.223 44.6839C355.565 44.5168 356.802 44.193 357.934 43.7125C359.067 43.2321 360.157 42.5531 361.206 41.6757C362.254 40.7984 363.271 39.7225 364.257 38.4482C365.242 37.1739 366.259 35.6385 367.308 33.842L368 34.03Z" fill="black"/>
</g>
<defs>
<clipPath id="clip0_3221_354">
<rect width="368" height="46" fill="white"/>
</clipPath>
</defs>
</svg>
