<svg width="768" height="136" viewBox="0 0 768 136" fill="none" xmlns="http://www.w3.org/2000/svg">
<path d="M465.129 83.4526C470.39 93.4577 475.559 103.274 480.727 113.091C483.381 118.106 486.104 123.073 488.688 128.134C491.179 133.007 489.782 135.55 484.312 135.809C479.47 136.044 474.604 135.691 469.785 135.95C465.758 136.138 463.407 134.537 461.637 130.841C455.212 117.446 448.368 104.263 442.013 90.821C439.964 86.4659 437.263 84.8415 432.538 84.9592C417.732 85.2888 419.455 83.5938 419.385 98.166C419.315 108.171 419.455 118.153 419.338 128.158C419.268 134.373 417.825 135.738 411.726 135.879C407.861 135.95 403.974 135.856 400.086 135.879C396.035 135.926 393.987 133.855 393.8 129.853C393.73 128.487 393.73 127.098 393.73 125.733C393.73 88.4904 393.73 51.2479 393.73 14.0053C393.73 4.68294 394.592 3.81191 403.578 3.78837C419.664 3.78837 435.75 3.64712 451.837 3.83545C468.551 4.02378 483.381 15.0647 489.503 31.4731C494.881 45.904 490.597 63.3482 478.655 73.8241C474.627 77.3789 469.902 80.1097 465.106 83.4997L465.129 83.4526ZM419.548 45.0094H419.524C419.524 48.9173 419.501 52.8487 419.524 56.7566C419.594 63.2776 419.757 63.4659 425.95 63.513C432.91 63.5601 439.894 63.5836 446.855 63.513C457.75 63.3953 465.758 55.9091 466.037 45.7157C466.293 35.5693 459.193 28.2479 447.949 27.7065C440.034 27.3063 432.095 27.6594 424.157 27.5652C421.014 27.5417 419.501 28.8835 419.548 32.1087C419.617 36.4168 419.548 40.7249 419.548 45.033V45.0094Z" fill="black"/>
<path d="M342.189 83.0051C350.011 97.8362 357.553 112.149 365.119 126.486C368.798 133.478 367.54 135.95 359.858 135.832C337.091 135.455 343.702 139.434 333.505 119.753C328.384 109.866 323.472 99.8608 318.7 89.785C317.047 86.3009 314.789 84.912 310.994 84.9826C293.604 85.2886 296.514 83.0051 296.305 99.3899C296.165 109.183 296.328 118.976 296.258 128.793C296.211 134.608 295.094 135.714 289.507 135.856C285.642 135.95 281.755 135.761 277.89 135.903C273.095 136.091 271.209 133.69 271.395 129.076C271.488 126.933 271.395 124.768 271.395 122.602C271.395 86.1597 271.395 49.694 271.395 13.2518C271.395 4.75339 272.373 3.76465 280.754 3.74111C296.258 3.71757 311.762 3.69403 327.267 3.74111C348.87 3.78819 365.701 18.1485 368.728 39.736C371.079 56.4975 363.42 68.8332 350.313 78.2262C347.962 79.8976 345.332 81.1924 342.259 82.9816L342.189 83.0051ZM296.374 45.2682C296.374 49.7646 296.491 54.2846 296.328 58.781C296.211 62.3357 297.748 63.6541 301.17 63.607C309.295 63.4893 317.443 63.7011 325.567 63.5363C335.671 63.3245 343.469 55.5558 343.632 45.8332C343.818 35.9458 336.462 28.0594 326.172 27.6357C317.862 27.3061 309.527 27.6357 301.193 27.518C297.794 27.4709 296.211 28.7892 296.328 32.344C296.468 36.652 296.351 40.9601 296.351 45.2682H296.374Z" fill="black"/>
<path d="M108.996 69.8224C108.996 89.2206 109.019 108.642 108.996 128.04C108.996 134.962 108.111 135.786 101.243 135.88C98.3334 135.927 95.4235 135.903 92.5135 135.88C84.8079 135.833 84.0862 135.173 84.063 127.546C84.0164 114.222 84.063 100.897 84.0397 87.5491C84.0397 80.675 83.9698 80.6279 77.2187 80.6044C61.9007 80.5809 46.5827 80.7456 31.2879 80.5102C26.5156 80.4396 24.7696 82.0169 24.886 86.9135C25.1421 98.284 24.886 109.655 24.9791 121.025C25.0955 137.834 24.9791 135.762 10.0103 135.856C8.66005 135.856 7.28654 135.809 5.93632 135.856C1.76926 135.95 -0.116398 133.879 0.0698391 129.712C0.116398 128.723 0.0698391 127.758 0.0698391 126.769C0 88.7497 0 50.7303 0 12.6874C0 4.28308 0.535432 3.78871 8.98596 3.74163C25.9103 3.671 24.9791 2.72934 24.9325 19.5144C24.9093 30.2964 25.0722 41.0783 24.8627 51.8603C24.7929 56.2155 26.4224 57.675 30.6594 57.628C46.5594 57.4632 62.4594 57.4396 78.3362 57.628C82.6429 57.675 84.1328 56.1213 84.0862 51.8132C83.9 38.6771 83.9931 25.541 84.0397 12.4049C84.063 5.01286 85.2502 3.74163 92.4436 3.74163C110.858 3.74163 108.926 2.11726 108.972 19.7969C109.019 36.4642 108.972 53.1315 108.972 69.7753L108.996 69.8224Z" fill="black"/>
<path d="M240.085 135.879C232.077 135.879 226.513 132.16 223.393 124.721C219.901 116.387 213.74 112.22 204.909 112.22C192.687 112.22 180.489 112.361 168.267 112.15C164.17 112.079 161.749 113.539 160.305 117.399C158.652 121.778 156.557 126.015 154.788 130.371C153.298 134.043 150.854 136.021 146.803 135.926C142.357 135.809 137.887 136.068 133.44 135.832C128.808 135.573 127.434 133.643 129.11 129.288C131.345 123.449 133.999 117.776 136.607 112.079C152.39 77.5672 168.151 43.0555 184.144 8.63791C185.284 6.16606 187.868 3.38817 190.313 2.72901C194.387 1.62256 195.504 5.74231 196.854 8.77916C214.291 47.2694 231.704 85.7596 249.164 124.203C253.866 134.561 253.098 135.903 241.784 135.926C241.202 135.926 240.62 135.926 240.038 135.926L240.085 135.879ZM172.993 89.0319H207.4C201.58 76.1312 196.179 64.1486 190.778 52.166H189.382C184.051 64.1721 178.696 76.1547 172.969 89.0319H172.993Z" fill="black"/>
<path d="M724.255 135.879C709.123 136.162 696.715 131.877 685.657 123.426C680.419 119.4 680.21 118.105 683.562 112.15C684.703 110.101 685.89 108.077 687.054 106.029C690.127 100.661 692.013 100.285 697.367 103.133C703.001 106.146 708.681 109.183 714.594 111.537C717.713 112.785 721.415 113.044 724.837 113.021C731.402 112.973 736.919 108.854 738.665 103.251C740.458 97.5773 738.665 90.5855 733.241 87.0779C726.42 82.6992 719.064 79.0738 711.731 75.5897C700.649 70.3164 690.43 64.0779 684.866 52.4484C675.344 32.5324 685.448 9.10865 706.353 2.6583C725.326 -3.17997 742.716 0.939777 758.988 11.6747C762.783 14.1936 763.691 17.2069 760.944 21.0677C760.711 21.3737 760.548 21.7504 760.339 22.08C752.912 34.7924 752.796 34.5334 739.922 28.4126C734.102 25.6347 727.561 23.7279 721.182 23.0452C715.153 22.386 709.798 25.3287 707.331 31.6849C704.956 37.8292 707.564 42.8671 712.243 46.0687C718.761 50.518 726.094 53.7197 732.869 57.7923C740.807 62.5948 749.467 66.7145 756.102 73.0001C773.561 89.5262 769.441 117.493 748.582 129.382C740.644 133.902 732.287 136.68 724.232 135.856L724.255 135.879Z" fill="black"/>
<path d="M558.785 47.4578C562.952 41.5725 566.77 36.2521 570.495 30.8847C575.71 23.3279 580.924 15.7711 586.022 8.14364C588.048 5.1068 590.609 3.5766 594.287 3.71785C598.361 3.8591 602.458 3.48244 606.485 3.8591C608.79 4.07097 612.049 4.75367 612.934 6.33095C613.772 7.86114 612.724 11.2276 611.467 13.0873C601.457 28.0126 591.633 43.1027 580.854 57.4394C573.754 66.9031 569.703 76.4138 570.658 88.6318C571.659 101.485 570.914 114.504 570.867 127.428C570.844 134.844 569.866 135.762 562.37 135.856C559.274 135.879 556.155 135.927 553.058 135.856C547.029 135.715 545.981 134.726 545.958 128.535C545.888 112.267 545.795 95.9767 546.005 79.7096C546.074 74.9542 544.864 71.0463 542.187 67.1385C529.825 49.1057 517.627 30.9553 505.498 12.7342C504.334 10.9922 503.193 8.00239 503.915 6.51928C504.637 5.01263 507.663 4.58888 509.712 3.78847C510.224 3.60014 510.876 3.74139 511.434 3.74139C531.432 4.00035 525.938 1.36371 536.995 17.2306C542.908 25.7291 548.728 34.2746 554.665 42.7731C555.642 44.162 556.876 45.3391 558.739 47.4343L558.785 47.4578Z" fill="black"/>
<path d="M666.214 28.4836C666.26 43.1264 657.414 56.0742 645.076 59.4877C643.609 59.8879 641.794 60.5706 640.583 60.0527C638.837 59.3465 636.928 57.8869 636.23 56.2625C635.88 55.4621 637.929 53.3198 639.233 52.1899C641.631 50.0947 644.913 48.7764 646.705 46.3045C649.895 41.8787 648.777 39.9719 643.47 39.1714C633.227 37.6177 627.081 29.802 628.361 19.9616C629.688 9.72112 638.558 2.6116 648.405 3.90638C657.531 5.10699 665.073 13.7702 666.214 24.411C666.354 25.7528 666.214 27.1418 666.214 28.5072V28.4836Z" fill="black"/>
</svg>
