<svg width="300" height="86" viewBox="0 0 300 86" fill="none" xmlns="http://www.w3.org/2000/svg">
<path d="M76.0091 35.6803C75.7439 41.5203 71.678 49.5204 63.8191 59.673C55.6951 70.2768 48.82 75.5806 43.1938 75.5806C39.7121 75.5806 36.7645 72.352 34.355 65.891L29.532 48.1318C27.745 41.6746 25.8274 38.4422 23.7752 38.4422C23.3295 38.4422 21.7615 39.3872 19.083 41.2696L16.2737 37.6321C19.2213 35.0323 22.1305 32.4286 24.9935 29.821C28.9287 26.4111 31.8801 24.6136 33.8516 24.4323C38.5016 23.9849 41.3646 27.1787 42.4406 34.0101C43.6012 41.3853 44.4044 45.9717 44.854 47.7654C46.1952 53.8831 47.6709 56.9381 49.2811 56.9381C50.534 56.9381 52.4132 54.9516 54.9188 50.9862C57.4206 47.017 58.7618 43.9967 58.9424 41.9253C59.2998 38.5 57.9586 36.7835 54.9188 36.7835C53.4854 36.7835 52.0097 37.1114 50.4955 37.7671C53.4316 28.1084 59.0423 23.414 67.3278 23.6801C73.4689 23.8614 76.3626 27.8615 76.0091 35.6803Z" fill="black"/>
<path d="M101.223 6.70019C101.135 8.93745 100.016 11.0821 97.8641 13.1381C96.7346 14.261 95.3939 15.1472 93.9201 15.7451C92.4462 16.3431 90.8685 16.6409 89.2789 16.6213C84.1793 16.6213 81.7159 14.3879 81.8965 9.92107C81.9811 7.59895 83.3492 5.3617 85.9855 3.21702C88.6256 1.0762 91.554 0 94.7782 0C96.6574 0 98.2215 0.740609 99.4782 2.21411C100.727 3.68761 101.311 5.18426 101.223 6.70019ZM112.898 54.6045C110.392 59.3567 106.949 63.6654 102.564 67.5227C96.569 72.7262 90.5778 75.3299 84.5828 75.3299C81.8043 75.3299 79.683 74.4312 78.2073 72.6337C76.7316 70.84 76.036 68.5102 76.1282 65.6365C76.2128 62.6779 77.1312 58.0992 78.876 51.9043C80.6207 45.7133 81.4969 42.3921 81.4969 41.9447C81.4969 39.611 80.6898 38.4422 79.0796 38.4422C78.5455 38.4422 77.0198 39.3873 74.5142 41.2696L71.4283 37.6322L80.0173 29.8211C83.8642 26.4112 86.7272 24.6137 88.6102 24.4324C91.5616 24.1662 93.7291 25.038 95.1164 27.0515C96.4999 29.0689 97.0148 31.6803 96.6613 34.9012C95.4969 40.3593 94.244 47.291 92.9028 55.6999C92.8106 59.5496 94.1979 61.4705 97.061 61.4705C98.3138 61.4705 100.55 60.1436 103.771 57.4859C106.457 55.2718 108.648 53.1888 110.35 51.237L112.898 54.6045Z" fill="black"/>
<path d="M196.706 54.6007C194.2 59.3568 190.757 63.6616 186.372 67.5189C180.377 72.7225 174.382 75.3262 168.391 75.3262C162.572 75.3262 159.755 72.0976 159.936 65.6327C160.021 62.759 160.582 59.3105 161.612 55.2719C162.638 51.2294 163.199 48.0895 163.287 45.8445C163.379 42.4385 162.346 40.7297 160.19 40.7297C157.857 40.7297 155.075 43.5147 151.843 49.0808C148.434 54.9208 146.589 60.5757 146.324 66.0531C146.132 69.9182 146.516 72.8806 147.45 74.9443C141.209 75.1256 136.836 74.0918 134.342 71.8468C132.105 69.8719 131.083 66.597 131.264 62.0145C131.34 59.1408 131.786 56.2671 132.582 53.3933C133.369 50.5196 133.808 47.9622 133.896 45.7134C134.088 42.3922 132.866 40.7297 130.268 40.7297C128.028 40.7297 125.607 43.291 123.013 48.4097C120.453 53.3818 118.987 58.8472 118.712 64.4369C118.52 69.4707 118.866 72.9693 119.673 74.9443C113.532 75.1256 109.17 73.8257 106.592 71.0484C104.447 68.7224 103.471 65.1852 103.652 60.4368C103.729 58.1109 104.147 54.863 104.885 50.7009C105.623 46.535 106.034 43.291 106.119 40.9611C106.311 39.3526 105.888 38.5426 104.912 38.5426C104.374 38.5426 102.852 39.4529 100.347 41.2697L97.1263 37.6323C97.5759 37.2774 100.389 34.6698 105.581 29.8212C109.339 26.3226 111.887 24.525 113.228 24.4363C115.557 24.255 117.433 25.2194 118.866 27.3293C120.296 29.4393 121.014 31.8887 121.014 34.6698C121.014 35.5686 120.937 36.4211 120.745 37.2311C122.043 35.2151 123.624 33.3987 125.441 31.8385C129.557 28.2512 134.165 26.2261 139.265 25.7787C143.649 25.4199 146.778 26.4498 148.661 28.8761C150.179 30.8511 150.894 33.6823 150.805 37.3622C151.432 36.8261 152.104 36.2398 152.823 35.611C154.875 33.1886 156.889 31.2599 158.856 29.8212C162.165 27.3949 165.616 26.0487 169.19 25.7787C173.486 25.4199 176.572 26.446 178.452 28.8645C180.058 30.8318 180.777 33.6515 180.6 37.316C180.508 39.8232 179.904 43.4684 178.786 48.2554C177.664 53.0423 177.11 55.7887 177.11 56.5062C177.018 58.3886 177.199 59.6847 177.645 60.3983C178.094 61.1157 179.163 61.4706 180.865 61.4706C182.118 61.4706 184.351 60.1437 187.575 57.4821C190.257 55.2719 192.452 53.1889 194.154 51.2371L196.706 54.6007Z" fill="black"/>
<path d="M216.566 40.398C216.651 37.9871 215.671 36.7798 213.619 36.7798C210.936 36.7798 208.212 38.6351 205.445 42.342C202.674 46.049 201.244 49.6016 201.156 52.996C201.106 52.996 201.106 53.5785 201.156 54.7395C205.46 53.1801 209.355 50.6596 212.547 47.3682C215.137 44.5099 216.474 42.1839 216.566 40.398ZM247.03 54.4618C244.436 58.7704 239.336 63.0714 231.731 67.3762C222.25 72.8459 212.627 75.5769 202.878 75.5769C195.634 75.5769 190.438 73.1545 187.31 68.3058C185.073 64.9846 184.001 61.0347 184.089 56.456C184.178 49.185 187.402 42.2726 193.754 35.7151C200.729 28.5328 208.961 24.9377 218.445 24.9377C227.215 24.9377 231.865 28.5251 232.403 35.6881C232.761 40.2552 230.255 44.9612 224.886 49.7983C219.16 55.0867 211.955 58.4426 203.281 59.8736C204.887 62.1148 207.301 63.2334 210.525 63.2334C216.966 63.2334 223.991 61.5902 231.596 58.2999C237.053 55.9893 241.35 53.59 244.482 51.1021L247.03 54.4618Z" fill="black"/>
<path d="M268.293 44.9264C268.406 42.6543 268.064 40.3824 267.286 38.2455C266.525 36.2243 265.426 35.206 264 35.206C259.435 35.206 255.676 37.6824 252.729 42.6313C250.219 46.6815 248.874 51.0017 248.701 55.5843C248.609 57.837 249.013 59.8196 249.908 61.5246C250.888 63.5072 252.275 64.4947 254.07 64.4947C258.094 64.4947 261.541 62.1147 264.404 57.3432C266.817 53.3817 268.112 49.2428 268.293 44.9264ZM283.457 45.4356C283.1 53.6865 280.06 60.8148 274.334 66.8207C268.608 72.8266 261.491 75.8314 252.994 75.8314C245.927 75.8314 240.558 73.544 236.892 68.9692C234.209 65.5632 232.73 61.3047 232.465 56.1976C232.011 48.4829 234.786 41.4008 240.785 34.9437C247.226 27.7729 255.319 24.1855 265.072 24.1855C271.333 24.1855 276.075 26.2955 279.299 30.5077C282.343 34.3651 283.726 39.341 283.457 45.4356Z" fill="black"/>
</svg>
