<svg width="737" height="122" viewBox="0 0 737 122" fill="none" xmlns="http://www.w3.org/2000/svg">
<path d="M69.7201 121.95L39.05 68.29H100.39L69.7201 121.95Z" fill="#262626"/>
<path d="M100.38 68.3H39.04L69.7 14.64L100.38 68.3Z" fill="#636363"/>
<path d="M78.07 0H139.41L100.37 68.3L69.71 14.64L78.07 0Z" fill="#262626"/>
<path d="M61.34 0L69.7 14.64L39.04 68.3L0 0H61.34Z" fill="#9F9F9F"/>
<path d="M725.71 75.34C719.91 75.34 715.2 80.04 715.2 85.85C715.2 91.66 719.91 96.36 725.71 96.36C731.51 96.36 736.22 91.66 736.22 85.85C736.22 80.04 731.51 75.34 725.71 75.34ZM725.71 94.25C721.07 94.25 717.3 90.48 717.3 85.84C717.3 81.2 721.07 77.43 725.71 77.43C730.35 77.43 734.12 81.2 734.12 85.84C734.11 90.48 730.34 94.25 725.71 94.25Z" fill="black"/>
<path d="M730.1 83.83C730.1 81.92 728.77 80.78 726.28 80.78H721.88V90.9H723.59V86.89H724.93L728.18 90.9H730.28L726.84 86.89C728.96 86.7 730.1 85.55 730.1 83.83ZM723.6 85.55V82.49H726.28C727.61 82.49 728.38 83.06 728.38 84.02C728.38 84.97 727.61 85.55 726.28 85.55H723.6Z" fill="black"/>
<path d="M193.8 76.54L177.45 27.65H157.19L182.16 96.02H203.47L228.31 27.65H210.01L193.8 76.54Z" fill="black"/>
<path d="M291.93 53.53C282 52.09 278.73 50.39 278.73 46.08C278.73 41.89 282.26 39.02 288.4 39.02C291.67 39.02 294.09 39.68 295.82 41.03C297.56 42.39 298.6 44.44 299.12 47.26H316.5C314.8 31.57 303.43 26.09 288.27 26.09C274.28 26.09 261.21 33.15 261.21 47.39C261.21 60.72 268.27 65.95 286.43 68.7C296.23 70.14 300.29 72.1 300.29 76.8C300.29 81.51 296.89 84.25 289.57 84.25C285.46 84.25 282.64 83.37 280.76 81.72C278.88 80.07 277.93 77.65 277.54 74.58H259.89C260.55 89.35 271.26 97.46 289.69 97.46C307.73 97.46 318.45 89.75 318.45 74.98C318.47 60.33 309.06 56.02 291.93 53.53Z" fill="black"/>
<path d="M347.71 74.21L347.72 41.1H362.06V27.67H347.72L347.71 12.31H328.93L328.94 27.67H320.2V41.1H328.94L328.93 75.9C328.93 90.12 336.62 97.42 350.97 97.42C356.05 97.42 359.84 96.51 362.44 95.6V80.99C360.22 81.9 358.14 82.29 355.27 82.29C350.44 82.29 347.71 79.69 347.71 74.21Z" fill="black"/>
<path d="M420.44 37.8C417.48 32.38 409.97 26.09 397.65 26.09C378.68 26.09 363.91 40.39 363.91 61.69C363.91 80.77 375.98 97.43 397.65 97.43C407.13 97.43 416.12 93.71 420.44 85.83V96.02H437.8V27.66H420.44V37.8ZM420.84 62.95C420.55 66.37 419.56 69.65 417.57 72.65C414.59 77.3 409.48 81.12 401.1 81.12C386.91 81.12 381.52 69.09 381.52 62.12V61.98C381.52 53.37 387.48 42.44 400.97 42.44C410.91 42.44 416.3 47.77 418.85 52.96C420.41 56.11 421.12 59.53 420.84 62.95Z" fill="black"/>
<path d="M253.67 27.66H234.93V96.02H253.67V27.66Z" fill="black"/>
<path d="M243.16 0.05C238.24 0.54 234.27 4.51 233.78 9.43C233.12 16.07 238.66 21.61 245.31 20.96C250.23 20.47 254.21 16.49 254.69 11.58C255.34 4.94 249.81 -0.6 243.16 0.05Z" fill="black"/>
<path d="M535.23 26.99H546.09V39.29C550.41 31.57 556.3 26.2 568.6 25.81V36.02C554.86 36.67 546.09 40.99 546.09 57.87V95.43H535.23V26.99Z" fill="black"/>
<path d="M576.51 10.53C576.51 6.6 579.78 3.33 583.71 3.33C587.64 3.33 590.91 6.6 590.91 10.53C590.91 14.46 587.64 17.73 583.71 17.73C579.78 17.73 576.51 14.46 576.51 10.53ZM578.47 26.99H589.33V95.43H578.47V26.99Z" fill="black"/>
<path d="M605.34 26.99H616.2V37.85C619.34 31.44 626.93 25.81 638.19 25.81C652.32 25.81 662.27 33.53 662.27 53.42V95.43H651.41V52.64C651.41 40.6 646.31 35.23 635.31 35.23C625.23 35.23 616.2 41.64 616.2 53.94V95.42H605.34V26.99Z" fill="black"/>
<path d="M677.46 78.29V36.15H667.64V26.99H677.46V11.42H688.32V26.99H704.29V36.15H688.32V77.24C688.32 83.91 691.33 87.19 696.83 87.19C700.23 87.19 702.85 86.67 705.21 85.75V94.91C702.98 95.7 700.37 96.35 695.92 96.35C683.48 96.35 677.46 89.02 677.46 78.29Z" fill="black"/>
<path d="M467.16 26.99V37.52C473.39 30.19 481.41 25.8 491.3 25.8C512.73 25.8 526.59 40.68 526.59 61.38C526.59 81.89 512.18 96.44 492.94 96.44C480.67 96.44 471.18 91.37 466.97 83.68V121.95H456.13V26.99H467.16ZM491.34 87.21C506.05 87.21 515.5 76.17 515.5 61.88C515.5 46.1 506.05 34.82 491.34 34.82C476.63 34.82 466.98 46.35 466.98 61.88C466.98 76.35 476.62 87.21 491.34 87.21Z" fill="black"/>
</svg>
